<svg xmlns="http://www.w3.org/2000/svg" viewBox="0 0 32 32" fill="none">
  <rect width="32" height="32" rx="8" fill="url(#g)"/>
  <path d="M8 20V12h4.5c2.2 0 3.5 1.1 3.5 2.8 0 1.2-.6 2.1-1.6 2.6L17 20h-2.4l-2.3-2.4H10v2.4H8zm2-6.2h2.3c1 0 1.5-.5 1.5-1.2s-.5-1.2-1.5-1.2H10v2.4zm8.5 6.2l-1.8-8h2.3l2.8 8h-3.3zm5.5 0V12h5.5v1.8h-3.3v1.6h3v1.8h-3v2h3.3V20H24z" fill="white"/>
  <defs>
    <linearGradient id="g" x1="0" y1="0" x2="32" y2="32">
      <stop stop-color="#6366f1"/>
      <stop offset="1" stop-color="#8b5cf6"/>
    </linearGradient>
  </defs>
</svg>
